<svg xmlns="http://www.w3.org/2000/svg" width="66" height="66" viewBox="0 0 66 66">
  <g id="contact" transform="translate(-142.5 -142.5)">
    <g id="Group_11" data-name="Group 11">
      <g id="Group_8" data-name="Group 8">
        <g id="Group_7" data-name="Group 7">
          <path id="Path_25" data-name="Path 25" d="M167.074,208.5a1.414,1.414,0,1,1,0-2.829h37.371a.692.692,0,0,0,.664-.885c-1.144-3.915-3-6.16-5.1-6.16l-.759,0c-.282,0-.564,0-.851,0-3.76,0-7.727-.423-11.257-5.477a1.416,1.416,0,0,1,2.323-1.619c2.975,4.258,5.916,4.261,9.64,4.264l.907,0c4.124,0,7.292,4.108,8.478,10.99a1.037,1.037,0,0,0,0,.184,1.12,1.12,0,0,0,.018.121,1.167,1.167,0,0,0-.029.153,1.423,1.423,0,0,1-.053.275,1.635,1.635,0,0,1-.259.463,1.325,1.325,0,0,1-.192.181,1.236,1.236,0,0,1-.221.15,1.276,1.276,0,0,1-.258.1,1.474,1.474,0,0,0-.194.077,1.776,1.776,0,0,1-.2.013H167.074Z" fill="#9b9b9b"/>
        </g>
      </g>
      <g id="Group_10" data-name="Group 10">
        <g id="Group_9" data-name="Group 9">
          <path id="Path_26" data-name="Path 26" d="M143.9,208.5a1.519,1.519,0,0,1-.19-.014,1.338,1.338,0,0,0-.19-.074,1.151,1.151,0,0,1-.485-.247,1.328,1.328,0,0,1-.2-.186,1.3,1.3,0,0,1-.145-.218,1.386,1.386,0,0,1-.112-.245,1.424,1.424,0,0,1-.052-.27,1.192,1.192,0,0,0-.03-.156.9.9,0,0,0,.018-.3C143.705,199.9,146.873,195.8,151,195.8l1.478,0c3.628,0,6.622-.314,9.383-4.264a1.416,1.416,0,1,1,2.322,1.62c-3.532,5.052-7.659,5.476-11.583,5.476h0c-.282,0-.561,0-.835,0l-.763,0c-2.1,0-3.961,2.245-5.108,6.16a.692.692,0,0,0,.664.885h7.88a1.414,1.414,0,1,1,0,2.829Z" fill="#9b9b9b"/>
        </g>
      </g>
    </g>
    <g id="Group_12" data-name="Group 12">
      <path id="Path_27" data-name="Path 27" d="M196.268,163.885a.685.685,0,0,1-.393-.349v-.67c0-6.666-1.737-11.782-5.163-15.206s-8.543-5.16-15.212-5.16-11.786,1.736-15.212,5.16-5.162,8.54-5.164,15.186v.693a.688.688,0,0,1-.392.346,5.617,5.617,0,0,0-3.819,5.3v4.211a5.632,5.632,0,0,0,5.628,5.626h5.674a.679.679,0,0,1,.123.2c2.79,7.321,8.2,12.434,13.162,12.434a8.406,8.406,0,0,0,2.566-.418,1.414,1.414,0,0,0-.434-2.76,1.457,1.457,0,0,0-.435.067,5.6,5.6,0,0,1-1.7.281c-4.888,0-12.277-8.073-12.277-20.242,0-12.258,6.676-14.831,12.277-14.831,4.176,0,7.342,1.37,9.413,4.075a1.414,1.414,0,1,0,2.245-1.72c-2.593-3.392-6.624-5.184-11.658-5.184-7.821,0-13,4.29-14.578,12.08a.691.691,0,0,1-.678.554h-1.6a.691.691,0,0,1-.691-.691c0-5.993,1.412-10.318,4.317-13.221s7.232-4.316,13.227-4.316,10.322,1.412,13.227,4.316,4.317,7.228,4.317,13.221a.691.691,0,0,1-.691.691h-.876l-2.489-.015h-.034a1.061,1.061,0,0,0-.144.013,1.416,1.416,0,0,0-1.231,1.576,28.581,28.581,0,0,1,.2,3.451,27.27,27.27,0,0,1-1.371,8.58,1.414,1.414,0,0,0,.9,1.786,1.388,1.388,0,0,0,.359.068v0h.034l.017,0,.008,0h4.625a.691.691,0,0,1,.691.691,2.8,2.8,0,0,1-2.8,2.8H181.82a.691.691,0,0,1-.691-.691v-2.106a1.415,1.415,0,0,0-2.831,0v4.212a1.416,1.416,0,0,0,1.415,1.414h10.533a5.633,5.633,0,0,0,5.629-5.626v-.388a.693.693,0,0,1,.459-.651,5.631,5.631,0,0,0,3.754-5.278v-4.211A5.617,5.617,0,0,0,196.268,163.885Zm-36.52,2.5a.692.692,0,0,1,.691.722l-.008.174c-.02.443-.039.861-.039,1.3a30.378,30.378,0,0,0,.767,6.763.692.692,0,0,1-.674.845h-3.944a2.8,2.8,0,0,1-2.8-2.8v-4.211a2.8,2.8,0,0,1,2.8-2.8Zm37.509,7.008a2.8,2.8,0,0,1-2.8,2.8h-3.95a.69.69,0,0,1-.674-.845,30.371,30.371,0,0,0,.773-6.763c0-.5-.021-1-.042-1.476a.692.692,0,0,1,.69-.721h3.2a2.8,2.8,0,0,1,2.8,2.8Z" fill="#9b9b9b"/>
    </g>
  </g>
</svg>
