<svg xmlns="http://www.w3.org/2000/svg" width="208.964" height="30.517" viewBox="0 0 208.964 30.517">
  <g id="Logo" transform="translate(0 -11)">
    <g id="Group_1" data-name="Group 1" transform="translate(0 11)">
      <path id="Path_1" data-name="Path 1" d="M1241.618,1578.381H1239.8l-8.437-24.69-8.434,24.69H1221.1l10.255-30.024Zm-6.348,0h-1.822l-4.351-12.733.911-2.667Zm-10.259-30.024-10.255,30.024h1.823l9.344-27.357Zm-43.892,15.081v14.943h-1.725V1564.01l-11.143-14.943h2.151Zm-28.266.286,10.929,14.657h-2.151l-10.929-14.657,11.453-15.361,12.608,16.908v13.109h-1.724v-12.537l-10.883-14.6Zm24.617-8.064,4.917-6.594h2.151l-5.992,8.037Zm3.862,5.179,8.778-11.772h2.151l-9.854,13.215Zm-39.236-11.772h-1.724v29.315h1.724Zm-6.405,29.315h-1.724v-29.315h1.724Zm20.367,0-10.929-14.657,10.929-14.658h-2.151l-10.929,14.658,10.929,14.657Zm119.126-16.8h9.314l.589-1.724h-8.179v-3.5h13.01l.588-1.724h-15.323Zm-4.681-10.79h19.414l.589-1.724h-21.728v29.315h21.139l.589-1.724h-20Zm6.4,16.259h7.59l.589-1.724h-9.9v7.538h14.734l.589-1.724h-13.6Zm-12.509,11.332h-19.122v-29.315H1247v27.591h17.983v.011Zm.585-7.242h-11.578v-22.073h-1.724v23.8H1264.4Zm43.581-10.666-3.2-1.428c-1.805-.808-1.805-1.449-1.805-1.874,0-.557.536-1.208,2.044-1.208a9.938,9.938,0,0,1,5.924,2.584l.428.389,1.036-1.389-.3-.277a11.463,11.463,0,0,0-7.084-3.033,4.258,4.258,0,0,0-2.785.869,2.7,2.7,0,0,0-.984,2.063c0,1.51.871,2.573,2.827,3.448l3.2,1.428a13.624,13.624,0,0,1,5.123,3.448,6.194,6.194,0,0,1,1.364,4.141,6.934,6.934,0,0,1-2.3,5.142,10.029,10.029,0,0,1-6.942,2.371,15.067,15.067,0,0,1-10.077-3.708l-.556-.523-1.037,1.391.413.388a16.915,16.915,0,0,0,11.257,4.176c7.2,0,10.963-4.647,10.963-9.238,0-4.122-2.175-6.776-7.508-9.163m-13.629-2.858c0-5.07,4.707-9.041,10.716-9.041a14.652,14.652,0,0,1,10.505,4.359l.154.163-1.047,1.4-.36-.381a12.9,12.9,0,0,0-9.253-3.82c-5.042,0-8.992,3.214-8.992,7.316,0,3.249,1.8,5.6,5.49,7.189l3.2,1.38c1.938.861,3.822,1.857,3.822,3.748,0,1.929-1.631,3.277-3.966,3.277-3.527,0-7.149-2.832-7.839-3.4l-.355-.292,1.031-1.384.419.344c1.687,1.387,4.465,3.007,6.744,3.007,1.362,0,2.242-.61,2.242-1.552,0-.557-.474-1.14-2.789-2.168l-3.193-1.375c-4.334-1.865-6.532-4.816-6.532-8.773m-89.09,2.858-3.2-1.428c-1.805-.808-1.805-1.449-1.805-1.874,0-.557.536-1.208,2.045-1.208a9.937,9.937,0,0,1,5.923,2.584l.428.389,1.036-1.389-.3-.277a11.463,11.463,0,0,0-7.084-3.033,4.259,4.259,0,0,0-2.785.869,2.706,2.706,0,0,0-.984,2.063c0,1.51.872,2.573,2.827,3.448l3.2,1.428a13.625,13.625,0,0,1,5.123,3.448,6.194,6.194,0,0,1,1.363,4.141,6.933,6.933,0,0,1-2.3,5.142,10.028,10.028,0,0,1-6.942,2.371,15.066,15.066,0,0,1-10.077-3.708l-.556-.523-1.037,1.391.413.388a16.916,16.916,0,0,0,11.257,4.176c7.2,0,10.962-4.647,10.962-9.238,0-4.122-2.175-6.776-7.507-9.163m-13.63-2.858c0-5.07,4.707-9.041,10.716-9.041a14.65,14.65,0,0,1,10.5,4.359l.154.163-1.046,1.4-.36-.381a12.9,12.9,0,0,0-9.252-3.82c-5.042,0-8.992,3.214-8.992,7.316,0,3.249,1.8,5.6,5.49,7.189l3.2,1.38c1.938.861,3.822,1.857,3.822,3.748,0,1.929-1.631,3.277-3.966,3.277-3.527,0-7.149-2.832-7.839-3.4l-.355-.292,1.032-1.384.419.344c1.687,1.387,4.465,3.007,6.744,3.007,1.362,0,2.242-.61,2.242-1.552,0-.557-.474-1.14-2.789-2.168l-3.193-1.375c-4.334-1.865-6.532-4.816-6.532-8.773" transform="translate(-1107.348 -1548.357)" fill="#fff"/>
      <path id="Path_2" data-name="Path 2" d="M940.291,1559.064c0-5.07,4.707-9.041,10.716-9.041a14.652,14.652,0,0,1,10.5,4.359l.154.163-1.046,1.4-.36-.381a12.9,12.9,0,0,0-9.252-3.82c-5.042,0-8.992,3.214-8.992,7.316,0,3.249,1.8,5.6,5.49,7.189l3.2,1.38c1.938.862,3.822,1.857,3.822,3.748,0,1.929-1.631,3.277-3.966,3.277-3.527,0-7.149-2.832-7.839-3.4l-.355-.292,1.032-1.384.419.345c1.687,1.386,4.465,3.006,6.744,3.006,1.362,0,2.242-.609,2.242-1.552,0-.557-.474-1.139-2.789-2.168l-3.194-1.375c-4.334-1.865-6.532-4.816-6.532-8.773" transform="translate(-938.795 -1549.807)" fill="#fff"/>
      <path id="Path_3" data-name="Path 3" d="M943.884,1599.937l-3.2-1.428c-1.806-.808-1.806-1.449-1.806-1.873,0-.557.536-1.207,2.045-1.207a9.939,9.939,0,0,1,5.923,2.584l.429.39,1.035-1.389-.3-.276a11.459,11.459,0,0,0-7.084-3.033,4.261,4.261,0,0,0-2.785.868,2.705,2.705,0,0,0-.984,2.064c0,1.51.871,2.573,2.826,3.448l3.2,1.428a13.622,13.622,0,0,1,5.123,3.448,6.194,6.194,0,0,1,1.363,4.141,6.936,6.936,0,0,1-2.3,5.143,10.027,10.027,0,0,1-6.942,2.371,15.064,15.064,0,0,1-10.076-3.708l-.556-.522-1.038,1.391.413.388a16.916,16.916,0,0,0,11.257,4.175c7.2,0,10.963-4.647,10.963-9.238,0-4.122-2.175-6.776-7.507-9.163" transform="translate(-928.758 -1587.822)" fill="#fff"/>
    </g>
  </g>
</svg>
